<svg xmlns="http://www.w3.org/2000/svg" xmlns:xlink="http://www.w3.org/1999/xlink" role="img" viewBox="0 0 232.16 210.77" xml:space="preserve"><!-- Generator: WPGraphicator version: 1.5.1 --><style type="text/css">.wpgraphicator-group-uip9xhmc3daa3pisfv5l  {	animation-name: wpgraphicator-group-uip9xhmc3daa3pisfv5l;animation-delay: 0s;animation-duration: 1.02s;animation-iteration-count: infinite;animation-fill-mode: both;}.wpgraphicator-path-a294mudn8saf5bbvo10hu path {animation-name: wpgraphicator-path-a294mudn8saf5bbvo10hu;animation-delay: 0s;animation-duration: 1.02s;animation-iteration-count: infinite;animation-fill-mode: both;}.wpgraphicator-path-v1dxhi42okk0m4ete1jj path {animation-name: wpgraphicator-path-v1dxhi42okk0m4ete1jj;animation-delay: 0s;animation-duration: 1.02s;animation-iteration-count: infinite;animation-fill-mode: both;}.wpgraphicator-path-a294mudn8saf5bbvo10hu-angle {animation-name: wpgraphicator-path-a294mudn8saf5bbvo10hu-angle;animation-delay: 0s;animation-duration: 1.02s;animation-iteration-count: infinite;animation-fill-mode: both;}@keyframes wpgraphicator-path-a294mudn8saf5bbvo10hu-angle {0% {animation-timing-function: linear;transform: rotate(67deg);}100% {animation-timing-function: linear;transform: rotate(113deg);}}.wpgraphicator-path-v1dxhi42okk0m4ete1jj-angle {animation-name: wpgraphicator-path-v1dxhi42okk0m4ete1jj-angle;animation-delay: 0s;animation-duration: 1.02s;animation-iteration-count: infinite;animation-fill-mode: both;}@keyframes wpgraphicator-path-v1dxhi42okk0m4ete1jj-angle {0% {animation-timing-function: linear;transform: rotate(67deg);}100% {animation-timing-function: linear;transform: rotate(23deg);}}@keyframes wpgraphicator-group-uip9xhmc3daa3pisfv5l{}@keyframes wpgraphicator-path-a294mudn8saf5bbvo10hu{0% {}100% {}}@keyframes wpgraphicator-path-v1dxhi42okk0m4ete1jj{0% {}100% {}}</style><g class="wpgraphicator-group-uip9xhmc3daa3pisfv5l-top" style="transform:translateY(105.39px)"><g class="wpgraphicator-group-uip9xhmc3daa3pisfv5l-left" style="transform:translateX(116.09px)"><g class="wpgraphicator-group-uip9xhmc3daa3pisfv5l-angle" style="transform:rotate(0deg)"><g class="wpgraphicator-group-uip9xhmc3daa3pisfv5l-scaleY" style="transform:scaleY(1)"><g class="wpgraphicator-group-uip9xhmc3daa3pisfv5l-scaleX" style="transform:scaleX(1)"><g class="wpgraphicator-group-uip9xhmc3daa3pisfv5l-skewY" style="transform:skewY(0deg)"><g class="wpgraphicator-group-uip9xhmc3daa3pisfv5l-skewX" style="transform:skewX(0deg)"><g class="wpgraphicator-group-uip9xhmc3daa3pisfv5l"><g transform="matrix(1 0 0 1 0 0)" class="wpgraphicator-path-3c79r2vp8tg89gd63s3q" data-opacity="1"><path d="M 199.66 181.46 C 183.15 200.8 159.79 212.46 135.15 217.56 C 115.21 221.72 94 222 74.9 215 C 44 203.62 21.6 172.65 19.62 139.81 C 19.05 129.64 20.28 119.45 23.26 109.71 C 26.24 99.9 30.81 90.64 36.78 82.31 C 42.73 73.95 50.04 66.65 58.41 60.72 C 67.37 54.44 77.62 50.23 88.41 48.39 C 93.97 47.5 99.58 47.01 105.2 46.9 C 119.49 46.51 133.95 47.58 147.97 44.79 C 164.41 41.47 179.39 33.05 190.75 20.71 C 190.12 33.95 186.01 46.78 178.83 57.92 C 205.39 54.87 226.64 33.51 238.83 9.72 C 245.68 20 249.14 32.2 250.68 44.44 C 251.72 52.76 251.91 61.17 251.25 69.53 C 249.68 89.82 243.23 109.42 232.45 126.68 C 224.9 138.93 215.69 150.07 205.09 159.8 C 193.27 170.4 179.68 177.07 165.51 183.92" stroke="#000000" stroke-opacity="1" stroke-width="0" stroke-dasharray="none" stroke-dashoffset="0" stroke-linecap="butt" stroke-linejoin="miter" stroke-miterlimit="4" fill="#59328a" fill-opacity="1" fill-rule="nonzero" opacity="1" transform=" translate(-135, -115)"/></g><g transform="matrix(1 0 0 1 0 0)" class="wpgraphicator-path-e2pf64r2l8k9d108i3akj" data-opacity="1"><path d="M 165.32 183.75" stroke="#000000" stroke-opacity="1" stroke-width="0" stroke-dasharray="none" stroke-dashoffset="0" stroke-linecap="butt" stroke-linejoin="miter" stroke-miterlimit="4" fill="#59328a" fill-opacity="1" fill-rule="nonzero" opacity="1" transform=" translate(-165.32, -183.75)"/></g></g></g></g></g></g></g></g></g><g class="wpgraphicator-path-a294mudn8saf5bbvo10hu-top" style="transform:translateY(122.33px)"><g class="wpgraphicator-path-a294mudn8saf5bbvo10hu-left" style="transform:translateX(83.02px)"><g class="wpgraphicator-path-a294mudn8saf5bbvo10hu-angle" style="transform:rotate(67.02727866917134deg)"><g class="wpgraphicator-path-a294mudn8saf5bbvo10hu-scaleY" style="transform:scaleY(0.9992497185388646)"><g class="wpgraphicator-path-a294mudn8saf5bbvo10hu-scaleX" style="transform:scaleX(0.9992497185388646)"><g class="wpgraphicator-path-a294mudn8saf5bbvo10hu-skewY" style="transform:skewY(0deg)"><g class="wpgraphicator-path-a294mudn8saf5bbvo10hu-skewX" style="transform:skewX(0deg)"><g class="wpgraphicator-path-a294mudn8saf5bbvo10hu"><path d="M 147.09 150.59 L 151.65 161.59 C 152.57 163.81 153.52 166.01 154.36 168.26 C 154.55 168.84 154.5 169.47 154.21 170.01 C 150.39 175.3 145.74 179.94 140.44 183.74 C 139.91 184.05 139.27 184.11 138.69 183.91 C 133.23 181.72 127.8 179.45 122.36 177.2 C 121.93 177.03 121.5 176.88 120.93 176.67 C 119.85 179.25 118.81 181.76 117.77 184.27 C 116.39 187.58 115.01 190.87 113.67 194.19 C 113.45 194.96 112.77 195.5 111.97 195.54 C 105.71 196.45 99.35 196.45 93.09 195.54 C 92.2 195.49 91.43 194.89 91.18 194.03 C 88.98 188.62 86.74 183.23 84.51 177.84 C 84.35 177.46 84.15 177.09 83.93 176.64 L 69.66 182.54 L 68.88 182.87 C 65.18 184.39 65.19 184.38 62.12 181.92 C 57.88 178.51 54.11 174.58 50.88 170.2 C 50.32 169.56 50.23 168.64 50.65 167.9 C 53.06 162.18 55.42 156.44 57.86 150.55 C 57.36 150.31 56.92 150.08 56.46 149.89 C 51.16 147.69 45.86 145.49 40.54 143.33 C 39.64 143.07 39 142.27 38.96 141.33 C 38.09 135.11 38.09 128.81 38.96 122.59 C 39 121.74 39.58 121.01 40.39 120.77 C 45.75 118.58 51.09 116.36 56.39 114.15 C 56.82 113.97 57.24 113.76 57.79 113.5 C 57.23 112.12 56.7 110.78 56.15 109.5 C 54.3 105.02 52.46 100.5 50.56 96.07 C 50.18 95.36 50.28 94.5 50.81 93.89 C 54.63 88.7 59.24 84.13 64.47 80.35 C 64.99 80.03 65.63 79.96 66.21 80.15 C 71.67 82.34 77.1 84.61 82.54 86.85 C 82.97 87.03 83.41 87.19 84 87.42 L 86.9 80.52 C 88.34 77.04 89.8 73.52 91.2 70.08 C 91.47 69.19 92.27 68.57 93.2 68.53 C 99.37 67.65 105.62 67.65 111.79 68.53 C 112.74 68.58 113.54 69.24 113.79 70.15 Q 117.11 78.25 120.48 86.33 C 120.62 86.67 120.79 87 121 87.44 L 131.87 82.95 C 134.05 82.05 136.23 81.17 138.39 80.23 C 139.09 79.84 139.96 79.94 140.56 80.47 C 145.73 84.29 150.3 88.85 154.13 94 C 154.61 94.58 154.69 95.41 154.32 96.07 Q 150.98 104.07 147.67 112.07 C 147.49 112.5 147.33 112.94 147.12 113.47 C 147.64 113.71 148.12 113.94 148.56 114.13 C 153.91 116.36 159.25 118.59 164.61 120.77 C 165.41 121.03 165.97 121.76 166 122.6 C 166.93 128.95 166.89 135.41 165.88 141.75 C 165.64 142.42 165.13 142.95 164.47 143.21 C 159.15 145.48 153.78 147.66 148.47 149.87 C 148 150.12 147.6 150.34 147.09 150.59 Z M 74.28 120.36 L 72.68 121.04 C 67.03 123.39 61.38 125.75 55.68 128.04 C 54.78 128.41 54.27 128.84 54.32 129.87 C 54.38 131.29 54.32 132.7 54.32 134.12 C 54.27 135.18 54.75 135.66 55.71 136.05 C 61.47 138.37 67.21 140.77 72.95 143.15 C 73.37 143.32 73.76 143.55 74.22 143.78 C 74 144.32 73.83 144.78 73.66 145.19 C 71.3 151 69 156.7 66.53 162.42 C 66.06 163.21 66.27 164.23 67.02 164.76 C 68 165.65 68.94 166.58 69.83 167.56 C 70.34 168.26 71.3 168.46 72.05 168.02 C 75.51 166.52 79.05 165.1 82.48 163.66 L 90.76 160.25 C 91.02 160.85 91.24 161.31 91.43 161.78 Q 94.98 170.31 98.5 178.87 C 98.69 179.71 99.49 180.28 100.35 180.18 C 101.81 180.1 103.28 180.1 104.74 180.18 C 105.51 180.26 106.22 179.76 106.41 179.01 C 107.63 175.95 108.9 172.91 110.16 169.86 C 111.42 166.81 112.79 163.54 114.16 160.3 C 114.73 160.52 115.16 160.67 115.6 160.85 C 120.16 162.74 124.72 164.65 129.3 166.5 C 130.92 167.15 132.78 168.36 134.21 168.01 C 135.64 167.66 136.81 165.68 138.11 164.46 C 138.72 163.98 138.88 163.12 138.47 162.46 C 137 159 135.54 155.51 134.1 152 C 132.97 149.28 131.85 146.55 130.7 143.76 C 131.16 143.53 131.48 143.34 131.82 143.2 C 137.64 140.79 143.47 138.36 149.3 135.98 C 150.14 135.64 150.64 135.23 150.59 134.24 C 150.53 132.83 150.54 131.41 150.59 130 C 150.72 129.08 150.13 128.22 149.23 128 C 144.16 126 139.13 123.86 134.08 121.77 C 132.97 121.31 131.86 120.82 130.7 120.32 C 130.9 119.77 131.03 119.32 131.19 118.99 C 133.07 114.42 134.98 109.86 136.85 105.28 C 137.51 103.65 138.79 101.8 138.45 100.35 C 138.11 98.9 136.13 97.76 134.91 96.45 C 134.41 95.8 133.51 95.63 132.81 96.05 C 127.81 98.19 122.74 100.26 117.69 102.35 C 116.54 102.83 115.38 103.29 114.16 103.78 C 113.9 103.19 113.7 102.78 113.52 102.35 Q 110.64 95.35 107.75 88.35 C 105.7 83.35 105.7 83.43 100.27 83.83 C 99.47 83.8 98.74 84.31 98.51 85.08 C 96.16 90.88 93.75 96.66 91.36 102.45 C 91.19 102.87 90.97 103.27 90.74 103.75 C 85.66 101.66 80.74 99.6 75.74 97.59 C 74.11 96.92 72.24 95.59 70.82 95.99 C 69.4 96.39 68.14 98.35 66.82 99.63 C 66.82 99.63 66.73 99.7 66.73 99.74 C 66.63 100.27 66.33 100.88 66.49 101.33 C 67.11 103.11 67.88 104.83 68.6 106.57 C 70.48 111.17 72.35 115.68 74.28 120.36 Z" stroke="#000000" stroke-opacity="1" stroke-width="0" stroke-dasharray="none" stroke-dashoffset="0" stroke-linecap="butt" stroke-linejoin="miter" stroke-miterlimit="4" fill="#fff" fill-opacity="1" fill-rule="nonzero" opacity="1" transform=" translate(-102.49, -132.05)"/></g></g></g></g></g></g></g></g><g class="wpgraphicator-path-v1dxhi42okk0m4ete1jj-top" style="transform:translateY(122.39px)"><g class="wpgraphicator-path-v1dxhi42okk0m4ete1jj-left" style="transform:translateX(83.09px)"><g class="wpgraphicator-path-v1dxhi42okk0m4ete1jj-angle" style="transform:rotate(67.02727866917134deg)"><g class="wpgraphicator-path-v1dxhi42okk0m4ete1jj-scaleY" style="transform:scaleY(0.9992497185388646)"><g class="wpgraphicator-path-v1dxhi42okk0m4ete1jj-scaleX" style="transform:scaleX(0.9992497185388646)"><g class="wpgraphicator-path-v1dxhi42okk0m4ete1jj-skewY" style="transform:skewY(0deg)"><g class="wpgraphicator-path-v1dxhi42okk0m4ete1jj-skewX" style="transform:skewX(0deg)"><g class="wpgraphicator-path-v1dxhi42okk0m4ete1jj"><path d="M 109.4 148.66 C 107.91 152.24 106.4 155.66 105.09 159.11 C 104.87 159.84 104.2 160.33 103.44 160.32 C 100.75 160.54 100.44 160.4 99.44 157.97 C 98.16 154.89 96.89 151.81 95.59 148.66 C 92.12 150.09 88.75 151.42 85.44 152.88 C 84.63 153.39 83.57 153.22 82.97 152.48 C 81.06 150.57 81.02 150.61 82.06 148.09 L 85.86 139 C 84.66 138.49 83.51 138 82.35 137.5 C 80.01 136.5 77.67 135.5 75.35 134.62 C 74.61 134.42 74.13 133.7 74.24 132.94 C 74.24 130.06 74.24 130.07 76.94 128.94 L 85.94 125.2 C 84.53 121.79 83.26 118.41 81.73 115.14 C 81.09 113.77 81.58 113.06 82.45 112.24 C 83.32 111.42 84.07 110.51 85.67 111.24 C 88.9 112.78 92.26 114.01 95.67 115.41 C 97.02 112.16 98.36 108.96 99.67 105.75 C 100.04 104.89 100.73 104.21 101.61 103.87 C 102.48 103.52 103.45 103.55 104.31 103.93 C 104.65 104.2 104.89 104.58 105 105 C 106.45 108.42 107.87 111.85 109.35 115.41 C 112.78 113.99 116.2 112.68 119.51 111.15 C 121.01 110.45 121.64 111.31 122.51 112.15 C 123.38 112.99 124.03 113.62 123.38 115.02 C 121.86 118.31 120.56 121.69 119.1 125.17 L 128.23 128.98 L 128.49 129.07 C 130.68 129.96 131.37 131.36 130.63 133.66 C 130.41 134.1 130.03 134.43 129.57 134.6 C 126.15 136.06 122.71 137.47 119.13 138.95 C 120.13 141.39 121.13 143.76 122.06 146.13 C 122.42 147 122.83 147.85 123.14 148.74 C 123.37 149.38 123.85 150.3 123.59 150.68 C 122.86 151.66 121.99 152.53 121.01 153.25 C 120.79 153.43 120.13 153.14 119.71 152.97 C 116.33 151.54 112.94 150.13 109.4 148.66 Z M 110.15 132.04 C 110.15 127.8 106.72 124.37 102.48 124.37 C 98.24 124.37 94.81 127.8 94.81 132.04 C 94.81 136.28 98.24 139.71 102.48 139.71 C 106.72 139.71 110.15 136.28 110.15 132.04 Z" stroke="#000000" stroke-opacity="1" stroke-width="0" stroke-dasharray="none" stroke-dashoffset="0" stroke-linecap="butt" stroke-linejoin="miter" stroke-miterlimit="4" fill="#fff" fill-opacity="1" fill-rule="nonzero" opacity="1" transform=" translate(-102.57, -132.01)"/></g></g></g></g></g></g></g></g></svg>