<svg xmlns="http://www.w3.org/2000/svg" viewBox="0 0 232.16 210.77"><defs><style>.cls-1{fill:#59328a;}.cls-2{fill:#fff;}</style></defs><title>ICONE TOR Web workers</title><g id="plume"><g id="Calque_1" data-name="Calque 1"><path class="cls-1" d="M199.66,181.46c-16.51,19.34-39.87,31-64.51,36.1C115.21,221.72,94,222,74.9,215,44,203.62,21.6,172.65,19.62,139.81a86.36,86.36,0,0,1,3.64-30.1,94,94,0,0,1,13.52-27.4A91.61,91.61,0,0,1,58.41,60.72a73.86,73.86,0,0,1,30-12.33,121.08,121.08,0,0,1,16.79-1.49c14.29-.39,28.75.68,42.77-2.11a79.54,79.54,0,0,0,42.78-24.08,75.21,75.21,0,0,1-11.92,37.21c26.56-3.05,47.81-24.41,60-48.2C245.68,20,249.14,32.2,250.68,44.44a123.78,123.78,0,0,1,.57,25.09,126.18,126.18,0,0,1-18.8,57.15,156,156,0,0,1-27.36,33.12c-11.82,10.6-25.41,17.27-39.58,24.12" transform="translate(-19.47 -9.72)"/><path class="cls-1" d="M165.32,183.75" transform="translate(-19.47 -9.72)"/></g></g><g id="Web_workers_logo" data-name="Web workers logo"><path class="cls-2" d="M147.09,150.59l4.56,11c.92,2.22,1.87,4.42,2.71,6.67a2.21,2.21,0,0,1-.15,1.75,60.21,60.21,0,0,1-13.77,13.73,2.1,2.1,0,0,1-1.75.17c-5.46-2.19-10.89-4.46-16.33-6.71-.43-.17-.86-.32-1.43-.53-1.08,2.58-2.12,5.09-3.16,7.6-1.38,3.31-2.76,6.6-4.1,9.92a1.87,1.87,0,0,1-1.7,1.35,65.63,65.63,0,0,1-18.88,0,2.1,2.1,0,0,1-1.91-1.51c-2.2-5.41-4.44-10.8-6.67-16.19-.16-.38-.36-.75-.58-1.2l-14.27,5.9-.78.33c-3.7,1.52-3.69,1.51-6.76-.95a63,63,0,0,1-11.24-11.72,2,2,0,0,1-.23-2.3c2.41-5.72,4.77-11.46,7.21-17.35-.5-.24-.94-.47-1.4-.66-5.3-2.2-10.6-4.4-15.92-6.56a2.19,2.19,0,0,1-1.58-2,67.6,67.6,0,0,1,0-18.74,2,2,0,0,1,1.43-1.82c5.36-2.19,10.7-4.41,16-6.62.43-.18.85-.39,1.4-.65-.56-1.38-1.09-2.72-1.64-4-1.85-4.48-3.69-9-5.59-13.43a1.94,1.94,0,0,1,.25-2.18A62.28,62.28,0,0,1,64.47,80.35a2.08,2.08,0,0,1,1.74-.2c5.46,2.19,10.89,4.46,16.33,6.7.43.18.87.34,1.46.57l2.9-6.9c1.44-3.48,2.9-7,4.3-10.44a2.18,2.18,0,0,1,2-1.55,66.15,66.15,0,0,1,18.59,0,2.2,2.2,0,0,1,2,1.62q3.32,8.1,6.69,16.18c.14.34.31.67.52,1.11l10.87-4.49c2.18-.9,4.36-1.78,6.52-2.72a1.88,1.88,0,0,1,2.17.24A65.09,65.09,0,0,1,154.13,94a1.84,1.84,0,0,1,.19,2.07q-3.34,8-6.65,16c-.18.43-.34.87-.55,1.4.52.24,1,.47,1.44.66,5.35,2.23,10.69,4.46,16.05,6.64a2,2,0,0,1,1.39,1.83,63.37,63.37,0,0,1-.12,19.15,2.46,2.46,0,0,1-1.41,1.46c-5.32,2.27-10.69,4.45-16,6.66C148,150.12,147.6,150.34,147.09,150.59ZM74.28,120.36l-1.6.68c-5.65,2.35-11.3,4.71-17,7-.9.37-1.41.8-1.36,1.83.06,1.42,0,2.83,0,4.25-.05,1.06.43,1.54,1.39,1.93,5.76,2.32,11.5,4.72,17.24,7.1.42.17.81.4,1.27.63-.22.54-.39,1-.56,1.41C71.3,151,69,156.7,66.53,162.42a1.76,1.76,0,0,0,.49,2.34,39.07,39.07,0,0,1,2.81,2.8,1.69,1.69,0,0,0,2.22.46c3.46-1.5,7-2.92,10.43-4.36l8.28-3.41c.26.6.48,1.06.67,1.53q3.55,8.53,7.07,17.09a1.7,1.7,0,0,0,1.85,1.31c1.46-.08,2.93-.08,4.39,0a1.55,1.55,0,0,0,1.67-1.17c1.22-3.06,2.49-6.1,3.75-9.15s2.63-6.32,4-9.56c.57.22,1,.37,1.44.55,4.56,1.89,9.12,3.8,13.7,5.65,1.62.65,3.48,1.86,4.91,1.51s2.6-2.33,3.9-3.55a1.52,1.52,0,0,0,.36-2C137,159,135.54,155.51,134.1,152c-1.13-2.72-2.25-5.45-3.4-8.24.46-.23.78-.42,1.12-.56,5.82-2.41,11.65-4.84,17.48-7.22.84-.34,1.34-.75,1.29-1.74-.06-1.41-.05-2.83,0-4.24a1.8,1.8,0,0,0-1.36-2c-5.07-2-10.1-4.14-15.15-6.23-1.11-.46-2.22-.95-3.38-1.45.2-.55.33-1,.49-1.33,1.88-4.57,3.79-9.13,5.66-13.71.66-1.63,1.94-3.48,1.6-4.93s-2.32-2.59-3.54-3.9a1.61,1.61,0,0,0-2.1-.4c-5,2.14-10.07,4.21-15.12,6.3-1.15.48-2.31.94-3.53,1.43-.26-.59-.46-1-.64-1.43q-2.88-7-5.77-14c-2.05-5-2.05-4.92-7.48-4.52a1.76,1.76,0,0,0-1.76,1.25c-2.35,5.8-4.76,11.58-7.15,17.37-.17.42-.39.82-.62,1.3-5.08-2.09-10-4.15-15-6.16-1.63-.67-3.5-2-4.92-1.6s-2.68,2.36-4,3.64c0,0-.09.07-.09.11-.1.53-.4,1.14-.24,1.59.62,1.78,1.39,3.5,2.11,5.24C70.48,111.17,72.35,115.68,74.28,120.36Z" transform="translate(-19.47 -9.72)"/><path class="cls-2" d="M109.4,148.66c-1.49,3.58-3,7-4.31,10.45a1.7,1.7,0,0,1-1.65,1.21c-2.69.22-3,.08-4-2.35-1.28-3.08-2.55-6.16-3.85-9.31-3.47,1.43-6.84,2.76-10.15,4.22a1.88,1.88,0,0,1-2.47-.4c-1.91-1.91-1.95-1.87-.91-4.39L85.86,139c-1.2-.51-2.35-1-3.51-1.5-2.34-1-4.68-2-7-2.88a1.52,1.52,0,0,1-1.11-1.68c0-2.88,0-2.87,2.7-4l9-3.74c-1.41-3.41-2.68-6.79-4.21-10.06-.64-1.37-.15-2.08.72-2.9s1.62-1.73,3.22-1c3.23,1.54,6.59,2.77,10,4.17,1.35-3.25,2.69-6.45,4-9.66a3.49,3.49,0,0,1,4.64-1.82A2.06,2.06,0,0,1,105,105c1.45,3.42,2.87,6.85,4.35,10.41,3.43-1.42,6.85-2.73,10.16-4.26,1.5-.7,2.13.16,3,1s1.52,1.47.87,2.87c-1.52,3.29-2.82,6.67-4.28,10.15l9.13,3.81.26.09c2.19.89,2.88,2.29,2.14,4.59a1.94,1.94,0,0,1-1.06.94c-3.42,1.46-6.86,2.87-10.44,4.35,1,2.44,2,4.81,2.93,7.18.36.87.77,1.72,1.08,2.61.23.64.71,1.56.45,1.94a12.09,12.09,0,0,1-2.58,2.57c-.22.18-.88-.11-1.3-.28C116.33,151.54,112.94,150.13,109.4,148.66Zm.75-16.62a7.67,7.67,0,0,0-15.34,0,7.67,7.67,0,1,0,15.34,0Z" transform="translate(-19.47 -9.72)"/></g></svg>